<?xml version="1.0" standalone="no"?>
<!DOCTYPE svg PUBLIC "-//W3C//DTD SVG 20010904//EN"
 "http://www.w3.org/TR/2001/REC-SVG-20010904/DTD/svg10.dtd">
<svg version="1.0" xmlns="http://www.w3.org/2000/svg"
 width="729.000000pt" height="729.000000pt" viewBox="0 0 729.000000 729.000000"
 preserveAspectRatio="xMidYMid meet">

<g transform="translate(0.000000,729.000000) scale(0.100000,-0.100000)"
fill="#000000" stroke="none">
<path d="M3640 6691 c0 -71 3 -142 6 -158 l6 -30 135 -6 c683 -33 1339 -317
1831 -792 899 -867 1133 -2189 586 -3306 -41 -84 -73 -153 -72 -154 20 -14
291 -165 293 -163 42 59 159 315 220 485 190 522 235 1142 124 1698 -169 850
-688 1602 -1429 2070 -127 80 -429 230 -560 279 -215 78 -453 140 -660 170
-114 17 -343 36 -427 36 l-53 0 0 -129z"/>
<path d="M5019 5677 l-156 -81 -124 64 c-68 35 -136 71 -151 79 -54 31 -47 -1
35 -154 l80 -150 -79 -152 c-43 -84 -75 -156 -70 -160 4 -4 76 27 159 71 l152
78 152 -81 c84 -45 155 -81 158 -81 15 0 -3 44 -70 172 -41 78 -75 145 -75
150 0 4 36 76 80 160 44 84 77 155 72 159 -4 4 -77 -29 -163 -74z"/>
<path d="M3770 5563 l0 -88 -70 -45 c-38 -25 -70 -48 -70 -52 0 -5 38 -8 85
-8 l84 0 53 -77 53 -78 3 92 3 91 74 49 c41 26 75 51 75 56 0 4 -40 7 -90 7
l-90 0 -46 70 c-26 39 -51 70 -55 70 -5 0 -9 -39 -9 -87z"/>
<path d="M3525 4775 c-89 -34 -156 -133 -156 -229 0 -70 10 -93 142 -308 62
-101 393 -644 736 -1208 433 -711 637 -1038 667 -1067 47 -45 95 -63 171 -63
67 0 122 27 171 83 61 69 80 157 50 237 -13 37 -1486 2461 -1515 2494 -56 63
-183 92 -266 61z"/>
<path d="M4790 4572 c0 -119 -3 -126 -86 -177 -41 -26 -74 -51 -74 -56 0 -5
42 -9 94 -9 l93 0 53 -81 c37 -56 56 -76 61 -67 5 7 9 51 9 98 l0 85 83 55 82
55 -100 3 -100 3 -49 75 c-27 41 -53 77 -57 80 -5 3 -9 -26 -9 -64z"/>
<path d="M3540 3051 c-237 -73 -313 -375 -139 -550 207 -206 559 -59 559 234
0 134 -84 259 -205 304 -57 22 -164 27 -215 12z"/>
</g>
</svg>
