<?xml version="1.0" standalone="no"?>
<!DOCTYPE svg PUBLIC "-//W3C//DTD SVG 20010904//EN"
 "http://www.w3.org/TR/2001/REC-SVG-20010904/DTD/svg10.dtd">
<svg version="1.0" xmlns="http://www.w3.org/2000/svg"
 width="900.000000pt" height="900.000000pt" viewBox="0 0 900.000000 900.000000"
 preserveAspectRatio="xMidYMid meet">

<g transform="translate(0.000000,900.000000) scale(0.100000,-0.100000)"
fill="#000000" stroke="none">
<path d="M4443 8893 l57 -4 0 -177 c0 -97 -4 -194 -9 -214 l-9 -38 37 0 c20 0
113 -5 206 -10 864 -53 1652 -366 2315 -923 158 -132 407 -386 531 -542 491
-614 773 -1310 854 -2105 21 -202 16 -633 -9 -835 -51 -406 -155 -779 -321
-1150 -59 -132 -136 -286 -157 -312 -6 -8 4 -19 34 -36 24 -14 114 -66 201
-116 87 -50 162 -91 167 -91 6 0 52 85 103 188 242 486 381 965 444 1522 24
215 24 676 0 890 -53 466 -150 851 -318 1253 -584 1398 -1852 2402 -3345 2647
-197 32 -398 49 -629 54 -115 2 -184 2 -152 -1z"/>
<path d="M4191 8873 c0 -11 3 -13 6 -5 2 6 8 10 12 8 3 -2 22 -1 41 4 35 8 34
8 -12 9 -40 1 -48 -2 -47 -16z"/>
<path d="M4103 8873 c15 -2 37 -2 50 0 12 2 0 4 -28 4 -27 0 -38 -2 -22 -4z"/>
<path d="M3945 8860 c-34 -9 -33 -10 12 -14 18 -2 30 0 28 5 -3 4 9 10 27 12
l33 4 -35 0 c-19 0 -48 -3 -65 -7z"/>
<path d="M3785 8838 c-27 -5 -60 -10 -73 -12 -12 -2 -26 -7 -30 -11 -4 -5 1
-5 12 -1 10 3 26 1 34 -6 11 -9 14 -9 9 -1 -5 8 4 14 30 18 21 3 56 10 78 14
55 12 4 11 -60 -1z"/>
<path d="M4168 8843 c7 -3 16 -2 19 1 4 3 -2 6 -13 5 -11 0 -14 -3 -6 -6z"/>
<path d="M3565 8796 c-40 -9 -46 -13 -27 -18 12 -3 22 -2 22 3 0 5 10 9 23 9
12 0 29 5 37 10 19 12 9 11 -55 -4z"/>
<path d="M3735 8790 c-16 -7 -17 -9 -3 -9 9 -1 20 4 23 9 7 11 7 11 -20 0z"/>
<path d="M3490 8776 c0 -2 7 -7 16 -10 8 -3 12 -2 9 4 -6 10 -25 14 -25 6z"/>
<path d="M3666 8772 c-3 -5 1 -9 9 -9 8 0 12 4 9 9 -3 4 -7 8 -9 8 -2 0 -6 -4
-9 -8z"/>
<path d="M3438 8763 c7 -3 16 -2 19 1 4 3 -2 6 -13 5 -11 0 -14 -3 -6 -6z"/>
<path d="M3343 8740 c-32 -13 -29 -22 3 -9 15 5 36 7 48 4 17 -5 18 -4 6 4
-18 13 -28 13 -57 1z"/>
<path d="M3281 8714 c0 -11 3 -14 6 -6 3 7 2 16 -1 19 -3 4 -6 -2 -5 -13z"/>
<path d="M3205 8700 c-13 -6 -15 -9 -5 -9 8 0 22 4 30 9 18 12 2 12 -25 0z"/>
<path d="M3158 8683 c7 -3 16 -2 19 1 4 3 -2 6 -13 5 -11 0 -14 -3 -6 -6z"/>
<path d="M3083 8660 c-13 -5 -23 -16 -23 -24 0 -17 27 -29 35 -16 4 6 -1 10
-9 10 -9 0 -16 5 -16 11 0 6 7 9 15 5 8 -3 15 -1 15 5 0 6 5 7 12 3 7 -4 8 -3
4 4 -4 7 -8 12 -9 11 -1 0 -12 -4 -24 -9z"/>
<path d="M3030 8639 c0 -5 5 -7 10 -4 6 3 10 8 10 11 0 2 -4 4 -10 4 -5 0 -10
-5 -10 -11z"/>
<path d="M2967 8621 c-20 -10 -34 -20 -31 -24 5 -5 68 25 83 39 10 9 -16 1
-52 -15z"/>
<path d="M2893 8592 c-13 -8 -7 -52 8 -52 17 0 20 20 3 27 -16 6 -15 7 2 20
19 14 8 18 -13 5z"/>
<path d="M2860 8571 c0 -6 4 -13 10 -16 6 -3 7 1 4 9 -7 18 -14 21 -14 7z"/>
<path d="M2835 8560 c3 -5 8 -10 11 -10 2 0 4 5 4 10 0 6 -5 10 -11 10 -5 0
-7 -4 -4 -10z"/>
<path d="M2800 8549 c0 -5 -4 -8 -8 -5 -4 2 -14 1 -22 -5 -12 -7 -10 -9 8 -9
12 0 25 0 29 0 4 0 8 6 9 15 1 8 -2 15 -7 15 -5 0 -9 -5 -9 -11z"/>
<path d="M2670 8494 c-25 -13 -34 -22 -21 -18 17 4 21 3 16 -6 -5 -9 -4 -11 4
-6 6 4 8 12 5 18 -5 7 -1 9 8 5 9 -3 24 3 34 14 23 25 9 23 -46 -7z"/>
<path d="M4240 8485 c0 -8 2 -15 4 -15 2 0 6 7 10 15 3 8 1 15 -4 15 -6 0 -10
-7 -10 -15z"/>
<path d="M2590 8460 c-12 -8 -9 -9 12 -8 15 1 24 6 22 10 -7 10 -16 10 -34 -2z"/>
<path d="M4220 8460 c-38 -6 -34 -7 30 -7 41 -1 104 3 140 7 63 7 62 7 -30 7
-52 -1 -115 -4 -140 -7z"/>
<path d="M4103 8443 c15 -2 37 -2 50 0 12 2 0 4 -28 4 -27 0 -38 -2 -22 -4z"/>
<path d="M2470 8399 c-81 -44 -121 -74 -54 -41 23 12 44 18 48 15 3 -4 6 -1 6
5 0 7 5 12 11 12 5 0 7 -6 3 -12 -4 -7 -4 -10 0 -6 4 3 6 9 4 12 -6 10 37 34
47 26 7 -6 11 -2 12 11 1 10 1 19 0 19 -1 0 -36 -19 -77 -41z"/>
<path d="M3960 8430 c-50 -11 1 -11 60 -1 41 8 42 8 10 8 -19 0 -51 -3 -70 -7z"/>
<path d="M3710 8419 c0 -5 5 -7 10 -4 6 3 10 8 10 11 0 2 -4 4 -10 4 -5 0 -10
-5 -10 -11z"/>
<path d="M3836 8414 c-38 -7 -74 -11 -80 -7 -8 4 -8 3 0 -6 8 -9 22 -9 55 -2
24 6 59 11 77 11 17 0 32 5 32 10 0 12 4 12 -84 -6z"/>
<path d="M3707 8389 c-9 -5 -21 -8 -26 -5 -5 3 -24 -1 -42 -9 l-34 -16 30 5
c91 15 105 19 105 27 0 12 -11 11 -33 -2z"/>
<path d="M3528 8348 c4 -4 23 -3 42 2 l35 8 -42 -1 c-23 -1 -39 -5 -35 -9z"/>
<path d="M2341 8323 c-6 -10 -11 -15 -11 -10 0 10 -56 -19 -66 -34 -4 -7 3 -6
17 2 13 7 27 12 32 11 4 -1 7 3 7 9 0 5 4 8 8 5 5 -3 16 4 25 15 9 10 13 19 7
19 -5 0 -14 -8 -19 -17z"/>
<path d="M3416 8320 c6 -6 21 -6 39 -1 30 9 30 9 -9 10 -26 1 -37 -2 -30 -9z"/>
<path d="M3290 8291 c-6 -12 -23 -21 -43 -23 -17 -2 -27 -6 -22 -9 6 -4 37 2
70 12 33 11 47 17 32 15 -21 -2 -27 0 -23 10 8 21 -2 17 -14 -5z"/>
<path d="M3355 8300 c3 -5 8 -10 11 -10 2 0 4 5 4 10 0 6 -5 10 -11 10 -5 0
-7 -4 -4 -10z"/>
<path d="M2210 8249 l-25 -20 25 12 c14 7 29 12 33 11 5 -1 6 2 2 8 -8 13 -5
13 -35 -11z"/>
<path d="M3150 8245 c-7 -9 -28 -23 -47 -31 -18 -9 -32 -19 -29 -21 2 -2 12 1
23 7 10 6 43 19 73 30 35 13 43 18 21 14 -23 -4 -31 -3 -27 5 10 16 0 13 -14
-4z"/>
<path d="M2073 8163 c-100 -67 -154 -109 -103 -82 14 8 27 17 30 20 19 22 144
98 153 92 6 -4 7 -1 2 7 -6 9 -4 12 7 8 8 -4 20 -3 27 2 10 5 9 9 -2 13 -9 3
-56 -21 -114 -60z"/>
<path d="M3030 8190 c-16 -9 -51 -23 -62 -24 -9 -1 -34 -26 -26 -26 11 0 118
50 118 55 0 7 -13 5 -30 -5z"/>
<path d="M2884 8132 c4 -7 2 -12 -5 -12 -18 0 -129 -54 -129 -62 0 -7 128 49
143 62 5 4 3 11 -4 15 -8 5 -10 4 -5 -3z"/>
<path d="M1899 8040 l-24 -20 28 11 c15 7 27 16 27 21 0 12 -5 10 -31 -12z"/>
<path d="M1940 8050 c0 -5 5 -10 10 -10 6 0 10 5 10 10 0 6 -4 10 -10 10 -5 0
-10 -4 -10 -10z"/>
<path d="M2704 8040 c-18 -10 -42 -20 -55 -22 -19 -2 -20 -5 -8 -10 17 -7 99
30 99 44 0 10 1 10 -36 -12z"/>
<path d="M1781 7952 c-45 -37 -87 -76 -93 -87 -5 -11 3 -5 19 12 15 18 42 38
60 44 18 6 31 14 30 18 -3 12 70 71 78 63 5 -4 5 -1 1 6 -4 6 -8 12 -9 11 -1
0 -40 -30 -86 -67z"/>
<path d="M2605 7990 c6 -9 1 -10 -16 -5 -16 4 -20 3 -11 -3 11 -7 8 -11 -10
-17 -12 -4 -30 -9 -38 -9 -8 -1 -14 -7 -12 -14 1 -9 -9 -11 -35 -8 -33 3 -35
2 -19 -10 18 -12 17 -14 -10 -26 -16 -7 -47 -25 -69 -42 -48 -36 -69 -56 -35
-33 14 9 74 44 133 79 144 84 143 83 127 93 -9 6 -11 4 -5 -5z"/>
<path d="M1900 7981 c0 -6 4 -13 10 -16 6 -3 7 1 4 9 -7 18 -14 21 -14 7z"/>
<path d="M1816 7907 c3 -10 9 -15 12 -12 3 3 0 11 -7 18 -10 9 -11 8 -5 -6z"/>
<path d="M2320 7860 c0 -4 7 -7 15 -6 23 3 26 12 5 13 -11 1 -20 -2 -20 -7z"/>
<path d="M1706 7845 c-3 -8 -1 -15 4 -15 6 0 10 7 10 15 0 8 -2 15 -4 15 -2 0
-6 -7 -10 -15z"/>
<path d="M1589 7787 c-36 -34 -58 -56 -49 -49 9 6 19 10 22 7 3 -3 17 10 32
30 15 19 32 33 37 30 5 -4 9 -2 9 4 0 5 7 17 16 25 8 9 12 16 7 16 -4 0 -38
-29 -74 -63z"/>
<path d="M2300 7801 c-8 -6 -17 -8 -21 -5 -4 2 -10 1 -13 -4 -9 -14 32 -11 45
4 13 16 10 18 -11 5z"/>
<path d="M2220 7768 c-2 -5 -3 -12 -4 -17 -2 -18 -64 -60 -83 -56 -15 2 -20
-1 -16 -13 4 -19 -59 -59 -86 -55 -10 2 -11 0 -3 -3 6 -3 12 -10 12 -15 0 -6
-5 -7 -12 -3 -7 4 -8 3 -4 -4 4 -7 46 19 114 69 59 45 112 86 117 92 6 6 3 5
-7 -1 -13 -10 -17 -10 -21 0 -3 7 -6 10 -7 6z"/>
<path d="M1412 7627 c-46 -46 -78 -84 -70 -84 7 0 19 6 26 14 7 7 10 13 7 13
-3 0 18 24 47 52 29 29 57 52 61 50 5 -1 6 2 2 8 -6 9 8 14 28 11 5 -1 6 3 2
9 -3 5 -9 10 -12 10 -3 0 -44 -37 -91 -83z"/>
<path d="M1423 7583 c-17 -6 -17 -20 0 -20 8 0 14 6 14 14 0 7 -1 13 -1 12 -1
0 -7 -3 -13 -6z"/>
<path d="M1960 7549 c-95 -87 -97 -88 -107 -78 -8 8 -13 7 -18 -2 -5 -7 -4
-10 3 -5 6 3 14 1 17 -5 4 -6 -2 -13 -14 -16 -12 -3 -21 -9 -21 -13 0 -5 -7
-16 -16 -25 -9 -9 -15 -18 -13 -20 2 -2 31 22 64 53 34 31 86 78 115 104 30
26 50 47 45 48 -6 0 -30 -19 -55 -41z"/>
<path d="M1846 7537 c3 -10 9 -15 12 -12 3 3 0 11 -7 18 -10 9 -11 8 -5 -6z"/>
<path d="M1257 7465 c-32 -36 -56 -65 -52 -65 3 0 17 11 30 25 12 14 25 22 27
18 3 -4 4 -3 2 4 -4 16 28 41 49 38 14 -3 16 -1 7 10 -7 8 -9 19 -5 25 13 22
-2 7 -58 -55z"/>
<path d="M1789 7433 c-13 -16 -12 -17 4 -4 9 7 17 15 17 17 0 8 -8 3 -21 -13z"/>
<path d="M5746 7412 c-2 -4 45 -102 105 -217 60 -114 109 -212 109 -218 0 -5
-47 -98 -105 -207 -58 -110 -105 -203 -105 -209 0 -5 4 -12 9 -15 5 -3 102 44
217 104 l209 109 155 -82 c85 -45 181 -95 212 -112 39 -20 60 -27 67 -20 7 7
-25 78 -100 222 l-110 212 110 211 c61 116 111 215 111 220 0 22 -41 5 -232
-95 -110 -58 -206 -105 -214 -105 -8 0 -105 47 -214 105 -109 58 -203 105
-209 105 -5 0 -12 -4 -15 -8z"/>
<path d="M1172 7367 l-21 -23 25 -2 c21 -2 24 1 15 11 -8 10 -7 17 1 25 7 7
10 12 7 12 -3 0 -15 -10 -27 -23z"/>
<path d="M1760 7365 c-7 -8 -17 -12 -24 -8 -6 3 -8 2 -3 -2 4 -5 0 -17 -10
-27 -25 -27 -36 -22 -17 10 l17 27 -26 -27 c-16 -16 -33 -25 -42 -22 -8 4 -15
2 -15 -4 0 -6 11 -9 25 -7 14 1 25 0 25 -3 0 -13 -75 -80 -83 -75 -6 3 -7 2
-4 -4 4 -6 -5 -15 -19 -22 -14 -6 -24 -17 -22 -23 6 -17 -62 -89 -75 -81 -6 3
-7 1 -3 -6 9 -14 -12 -43 -25 -36 -4 3 -6 13 -3 23 5 14 4 14 -4 2 -8 -10 -8
-18 0 -27 7 -9 3 -21 -16 -43 -22 -27 -45 -38 -39 -18 2 4 -4 5 -13 1 -15 -5
-15 -7 0 -15 15 -8 14 -12 -5 -39 -11 -16 -25 -26 -30 -23 -6 3 -9 -2 -7 -12
2 -12 -2 -18 -10 -16 -8 1 -11 -2 -7 -8 3 -5 2 -10 -4 -10 -5 0 -13 5 -16 10
-3 6 -12 10 -18 9 -8 0 -8 -2 1 -6 10 -4 10 -8 0 -21 -10 -14 -10 -15 1 -5 7
6 19 9 26 7 7 -3 42 33 81 83 68 88 206 246 273 314 79 80 115 119 109 119 -3
0 -11 -7 -18 -15z m-170 -179 c0 -3 -4 -8 -10 -11 -5 -3 -10 -1 -10 4 0 6 5
11 10 11 6 0 10 -2 10 -4z"/>
<path d="M1118 7305 c-22 -29 -22 -32 -3 -32 8 0 12 4 10 8 -3 3 2 12 10 19
16 13 20 30 8 30 -5 0 -16 -11 -25 -25z"/>
<path d="M1150 7295 c-11 -13 -10 -14 4 -9 9 3 16 10 16 15 0 13 -6 11 -20 -6z"/>
<path d="M4680 7178 c0 -57 -3 -112 -6 -123 -3 -11 -48 -48 -100 -83 -86 -57
-109 -86 -66 -81 10 1 61 1 114 0 l96 -1 69 -102 68 -103 6 65 c4 36 7 92 8
125 l1 60 100 65 c55 36 100 68 100 72 0 4 -55 9 -122 10 l-123 3 -65 97 c-36
54 -68 97 -72 98 -5 0 -8 -46 -8 -102z"/>
<path d="M1070 7245 c-7 -9 -8 -15 -2 -15 5 0 12 7 16 15 3 8 4 15 2 15 -2 0
-9 -7 -16 -15z"/>
<path d="M1520 7229 c0 -5 5 -7 10 -4 6 3 10 8 10 11 0 2 -4 4 -10 4 -5 0 -10
-5 -10 -11z"/>
<path d="M1023 7182 c-31 -39 -34 -56 -8 -45 8 2 12 10 10 16 -3 7 2 21 11 32
12 16 16 17 23 6 6 -9 11 -10 15 -2 4 6 12 8 18 5 7 -5 8 -2 4 5 -5 7 -14 10
-21 7 -8 -3 -15 0 -17 5 -2 6 -18 -7 -35 -29z"/>
<path d="M1470 7149 c0 -5 5 -7 10 -4 6 3 10 8 10 11 0 2 -4 4 -10 4 -5 0 -10
-5 -10 -11z"/>
<path d="M1466 7113 c-6 -14 -5 -15 5 -6 7 7 10 15 7 18 -3 3 -9 -2 -12 -12z"/>
<path d="M947 7083 c-15 -21 -36 -51 -48 -68 -20 -28 -20 -28 0 -7 11 13 25
21 31 17 6 -4 7 1 3 11 -4 12 -3 15 6 10 6 -4 10 -4 9 1 -1 4 6 23 15 41 23
43 16 41 -16 -5z"/>
<path d="M842 6929 c-14 -22 -7 -25 14 -5 8 8 11 17 6 20 -4 2 -13 -4 -20 -15z"/>
<path d="M806 6878 c-8 -12 -13 -25 -10 -30 3 -4 1 -8 -5 -8 -9 0 -49 -61 -98
-150 -11 -19 -35 -61 -52 -92 -18 -32 -28 -58 -23 -58 6 0 15 12 21 28 22 57
47 85 66 74 5 -3 4 2 -4 11 -13 16 -8 22 14 17 6 -1 5 4 -2 11 -10 9 -7 19 10
43 12 17 27 37 34 44 7 7 13 20 13 28 0 8 5 14 11 14 5 0 8 4 5 9 -3 5 1 11 9
15 8 3 15 14 15 24 0 10 5 23 12 30 7 7 9 12 6 12 -4 0 -14 -10 -22 -22z"/>
<path d="M1293 6830 c-3 -11 -10 -17 -16 -13 -5 3 -7 1 -4 -4 4 -6 0 -14 -9
-17 -8 -3 -12 -10 -9 -16 3 -5 -2 -10 -12 -10 -15 0 -16 -2 -3 -10 8 -5 10
-10 4 -10 -6 0 -21 -19 -34 -42 -31 -59 -14 -39 54 60 31 45 52 82 45 82 -6 0
-13 -9 -16 -20z"/>
<path d="M1204 6766 c1 -8 5 -18 8 -22 4 -3 5 1 4 10 -1 8 -5 18 -8 22 -4 3
-5 -1 -4 -10z"/>
<path d="M755 6720 c-16 -17 -16 -20 -3 -15 9 4 19 13 22 21 7 19 2 18 -19 -6z"/>
<path d="M1167 6654 c3 -9 0 -14 -8 -12 -7 2 -13 -4 -14 -12 -1 -24 -58 -126
-62 -112 -3 6 -9 12 -15 12 -6 0 -5 -7 3 -16 10 -13 10 -17 -2 -25 -8 -5 -9
-9 -4 -9 6 0 3 -5 -5 -11 -8 -6 -9 -9 -3 -7 7 2 39 47 72 100 42 69 55 98 45
102 -8 3 -11 0 -7 -10z"/>
<path d="M1040 6563 c0 -17 14 -23 29 -14 9 6 10 11 2 15 -6 4 -11 1 -11 -6 0
-9 -3 -9 -10 2 -6 9 -10 10 -10 3z"/>
<path d="M592 6505 c-11 -23 -10 -25 7 -16 10 6 22 7 27 3 5 -4 2 2 -6 13 -8
11 -15 21 -16 23 0 1 -6 -9 -12 -23z"/>
<path d="M556 6433 c-6 -14 -5 -15 5 -6 7 7 10 15 7 18 -3 3 -9 -2 -12 -12z"/>
<path d="M1035 6420 c-14 -27 -26 -35 -48 -31 -5 1 -6 -3 -3 -8 3 -5 -1 -11
-9 -15 -8 -3 -15 -11 -15 -18 0 -10 2 -10 9 1 5 7 15 11 22 9 9 -3 7 -10 -8
-25 -12 -12 -19 -24 -16 -27 3 -3 0 -13 -8 -22 -7 -9 -14 -26 -16 -37 -2 -17
-1 -19 6 -7 5 8 7 18 5 22 -3 4 -1 8 4 8 13 0 46 70 44 93 0 9 3 15 8 12 5 -3
18 12 30 35 11 22 18 40 15 40 -2 0 -11 -13 -20 -30z"/>
<path d="M515 6348 c-15 -35 -36 -80 -46 -102 -19 -39 -17 -56 4 -56 8 0 8 3
-1 9 -10 6 -7 17 12 52 14 24 32 61 42 81 9 23 21 35 28 31 8 -4 8 -2 -1 7 -6
7 -9 19 -6 26 3 8 3 14 1 14 -3 0 -17 -28 -33 -62z"/>
<path d="M530 6300 c0 -5 5 -10 11 -10 5 0 7 5 4 10 -3 6 -8 10 -11 10 -2 0
-4 -4 -4 -10z"/>
<path d="M923 6205 c0 -8 4 -12 9 -9 4 3 8 9 8 15 0 5 -4 9 -8 9 -5 0 -9 -7
-9 -15z"/>
<path d="M422 6133 c-29 -71 -36 -97 -23 -89 6 4 11 16 11 26 0 10 8 24 18 29
9 6 12 11 5 11 -17 0 17 58 37 64 9 2 6 4 -6 5 -17 1 -26 -10 -42 -46z"/>
<path d="M910 6171 c0 -7 -6 -11 -13 -8 -9 3 -13 -2 -12 -16 1 -12 -4 -31 -10
-42 -7 -11 -15 -33 -19 -50 -3 -17 10 3 30 44 19 40 33 76 29 79 -3 3 -5 0 -5
-7z"/>
<path d="M4363 6075 c-196 -55 -303 -271 -224 -451 10 -23 83 -146 162 -275
139 -229 767 -1258 1444 -2369 186 -305 363 -598 394 -650 104 -175 195 -240
336 -240 191 0 333 138 336 324 2 116 36 53 -551 1016 -62 102 -125 205 -140
230 -15 25 -197 324 -405 665 -208 341 -515 846 -683 1122 -168 276 -323 520
-345 542 -80 83 -211 118 -324 86z"/>
<path d="M821 6031 c20 -16 21 -21 10 -35 -7 -9 -9 -16 -3 -16 19 0 23 33 6
51 -10 11 -21 19 -27 19 -5 0 1 -8 14 -19z"/>
<path d="M370 6000 c-7 -17 -10 -33 -8 -36 3 -2 11 9 18 26 7 17 10 33 8 36
-3 2 -11 -9 -18 -26z"/>
<path d="M800 5970 c0 -6 4 -10 9 -10 6 0 3 -16 -5 -36 -8 -20 -13 -39 -10
-42 3 -2 8 4 12 14 3 10 10 29 15 42 12 29 12 29 -6 36 -8 3 -15 1 -15 -4z"/>
<path d="M346 5924 c-8 -20 -4 -25 11 -16 7 4 9 13 4 21 -6 10 -10 9 -15 -5z"/>
<path d="M327 5869 c-4 -16 -3 -18 9 -8 16 13 19 29 5 29 -5 0 -11 -9 -14 -21z"/>
<path d="M6078 5748 l-3 -133 -108 -73 c-60 -41 -107 -75 -105 -77 2 -2 46 -5
98 -6 173 -4 159 3 237 -115 37 -57 71 -104 76 -104 4 0 7 37 8 83 0 45 4 104
7 132 l7 49 103 68 c56 37 102 72 102 78 0 6 -50 10 -130 10 l-129 0 -72 108
c-39 59 -75 108 -80 110 -4 2 -10 -56 -11 -130z"/>
<path d="M345 5850 c-3 -5 -2 -10 4 -10 5 0 13 5 16 10 3 6 2 10 -4 10 -5 0
-13 -4 -16 -10z"/>
<path d="M766 5837 c3 -10 9 -15 12 -12 3 3 0 11 -7 18 -10 9 -11 8 -5 -6z"/>
<path d="M306 5808 c-8 -41 -3 -45 11 -8 6 17 8 32 3 35 -4 2 -10 -9 -14 -27z"/>
<path d="M366 5823 c-6 -14 -5 -15 5 -6 7 7 10 15 7 18 -3 3 -9 -2 -12 -12z"/>
<path d="M744 5793 c0 -21 -3 -51 -7 -68 -4 -16 2 -6 12 23 11 29 18 59 14 67
-9 26 -18 16 -19 -22z"/>
<path d="M290 5751 c0 -6 4 -12 8 -15 5 -3 9 1 9 9 0 8 -4 15 -9 15 -4 0 -8
-4 -8 -9z"/>
<path d="M275 5704 c-4 -16 -11 -45 -16 -64 -9 -36 0 -50 31 -49 9 0 6 4 -6 9
-16 6 -20 15 -17 34 3 14 9 26 13 26 4 0 7 8 6 18 0 10 5 16 13 14 12 -3 12
-1 1 15 -8 10 -15 20 -17 22 -1 2 -5 -10 -8 -25z"/>
<path d="M708 5645 c-9 -25 -11 -45 -7 -45 5 0 11 12 15 28 3 15 8 35 11 45
10 36 -5 15 -19 -28z"/>
<path d="M690 5585 c-1 -5 -2 -13 -1 -17 0 -5 -4 -8 -10 -8 -5 0 -8 -4 -5 -8
7 -11 -15 -93 -23 -88 -4 3 -5 -12 -2 -32 4 -34 6 -28 27 53 13 50 22 95 20
100 -3 7 -5 7 -6 0z"/>
<path d="M236 5555 c-3 -9 -6 -22 -5 -28 0 -7 5 -1 10 12 5 13 8 26 5 28 -2 2
-6 -3 -10 -12z"/>
<path d="M215 5464 c-3 -26 -9 -54 -12 -63 -3 -10 0 -8 8 4 7 11 14 29 15 40
1 11 3 20 4 20 1 0 3 10 4 23 5 43 -12 22 -19 -24z"/>
<path d="M637 5373 c-3 -10 -8 -31 -12 -48 -7 -28 -10 -43 -19 -100 -2 -11 -4
-33 -5 -48 -1 -19 -5 -26 -13 -21 -7 4 -8 3 -4 -4 8 -14 -4 -153 -13 -148 -3
2 -6 -16 -6 -40 0 -81 10 -45 29 99 23 173 22 169 29 187 9 26 27 133 23 137
-2 3 -6 -4 -9 -14z"/>
<path d="M187 5338 c-11 -47 -17 -123 -8 -103 5 11 6 24 3 29 -3 5 3 6 13 2
15 -5 16 -4 5 9 -8 9 -10 27 -6 50 8 38 1 49 -7 13z"/>
<path d="M215 5340 c-3 -6 1 -7 9 -4 18 7 21 14 7 14 -6 0 -13 -4 -16 -10z"/>
<path d="M596 5293 c-6 -14 -5 -15 5 -6 7 7 10 15 7 18 -3 3 -9 -2 -12 -12z"/>
<path d="M565 5270 c-3 -5 -1 -10 4 -10 6 0 11 5 11 10 0 6 -2 10 -4 10 -3 0
-8 -4 -11 -10z"/>
<path d="M156 5144 c-4 -31 -5 -59 -2 -61 2 -3 8 21 11 52 4 31 5 58 3 61 -3
2 -8 -21 -12 -52z"/>
<path d="M136 5009 c-14 -70 0 -150 18 -104 3 8 1 15 -5 15 -6 0 -8 22 -4 60
7 64 2 80 -9 29z"/>
<path d="M562 4878 c-1 -20 -5 -45 -8 -55 -5 -14 -4 -15 5 -7 7 7 11 29 8 55
-3 42 -4 42 -5 7z"/>
<path d="M123 4795 c0 -38 2 -53 4 -32 2 20 2 52 0 70 -2 17 -4 1 -4 -38z"/>
<path d="M548 4723 c-3 -38 -1 -75 3 -83 5 -9 9 19 9 68 0 45 -2 82 -4 82 -2
0 -6 -30 -8 -67z"/>
<path d="M111 4628 c2 -102 6 -94 11 20 2 39 0 72 -4 72 -4 0 -7 -42 -7 -92z"/>
<path d="M130 4620 c0 -5 5 -10 10 -10 6 0 10 5 10 10 0 6 -4 10 -10 10 -5 0
-10 -4 -10 -10z"/>
<path d="M540 4569 c0 -5 5 -7 10 -4 6 3 10 8 10 11 0 2 -4 4 -10 4 -5 0 -10
-5 -10 -11z"/>
<path d="M537 4520 c3 -11 7 -20 9 -20 2 0 4 9 4 20 0 11 -4 20 -9 20 -5 0 -7
-9 -4 -20z"/>
<path d="M515 4510 c3 -5 8 -10 11 -10 2 0 4 5 4 10 0 6 -5 10 -11 10 -5 0 -7
-4 -4 -10z"/>
<path d="M110 4387 c0 -90 1 -97 23 -107 19 -9 20 -9 6 2 -12 10 -16 33 -16
101 0 48 -4 91 -7 94 -3 4 -6 -37 -6 -90z"/>
<path d="M550 4347 l5 -112 3 104 c1 57 -1 108 -5 112 -4 5 -6 -42 -3 -104z"/>
<path d="M141 4354 c0 -11 3 -14 6 -6 3 7 2 16 -1 19 -3 4 -6 -2 -5 -13z"/>
<path d="M127 4140 c6 -161 19 -225 19 -91 -1 57 -3 95 -6 85 -3 -11 -8 13
-11 51 -4 40 -5 20 -2 -45z"/>
<path d="M563 4160 c0 -25 2 -35 4 -22 2 12 2 32 0 45 -2 12 -4 2 -4 -23z"/>
<path d="M568 4070 c-2 -22 0 -40 4 -40 5 0 8 18 8 40 0 22 -2 40 -4 40 -2 0
-6 -18 -8 -40z"/>
<path d="M577 3988 c-2 -18 -1 -37 3 -43 4 -5 10 -19 14 -30 3 -11 3 -6 0 10
-3 17 -5 45 -4 63 0 17 -1 32 -4 32 -2 0 -6 -15 -9 -32z"/>
<path d="M152 3885 c0 -16 2 -22 5 -12 2 9 2 23 0 30 -3 6 -5 -1 -5 -18z"/>
<path d="M591 3878 c0 -7 4 -22 9 -33 8 -18 9 -17 9 7 1 15 -3 30 -9 33 -5 3
-10 0 -9 -7z"/>
<path d="M167 3790 c3 -25 9 -61 14 -80 6 -27 7 -23 3 19 -5 39 -3 56 7 62 11
7 10 9 -3 9 -9 0 -19 8 -21 18 -3 9 -3 -3 0 -28z"/>
<path d="M608 3773 c6 -2 12 -9 12 -14 0 -6 -4 -7 -10 -4 -5 3 -10 1 -10 -4 0
-6 6 -11 13 -11 8 0 7 -4 -3 -10 -13 -8 -13 -10 2 -10 9 0 19 -8 21 -17 2 -10
2 0 -1 22 -5 47 -9 55 -25 54 -9 0 -9 -2 1 -6z"/>
<path d="M4391 3689 c-63 -12 -159 -60 -210 -105 -105 -91 -157 -220 -149
-371 3 -76 9 -100 40 -164 46 -98 114 -166 214 -216 70 -34 86 -38 173 -41
111 -5 187 15 277 73 139 89 222 280 194 448 -43 254 -289 425 -539 376z"/>
<path d="M191 3646 c-1 -23 2 -26 12 -17 8 6 18 7 22 3 5 -4 5 -1 1 6 -4 7
-11 10 -16 7 -5 -3 -11 3 -13 12 -3 11 -5 6 -6 -11z"/>
<path d="M645 3625 c3 -27 6 -56 7 -62 1 -14 18 -18 18 -5 -1 4 -7 32 -15 62
l-15 55 5 -50z"/>
<path d="M203 3594 c3 -10 11 -48 17 -84 7 -36 16 -72 22 -80 7 -11 8 -9 3 10
-15 65 -26 131 -22 138 3 4 -2 13 -10 21 -13 12 -15 11 -10 -5z"/>
<path d="M670 3535 c-1 -5 -3 -18 -5 -27 -2 -10 1 -21 7 -24 15 -10 18 0 9 32
-5 16 -10 25 -11 19z"/>
<path d="M646 3465 c-9 -26 -7 -32 5 -12 6 10 9 21 6 23 -2 3 -7 -2 -11 -11z"/>
<path d="M685 3445 c0 -12 3 -21 7 -19 4 3 11 -13 14 -36 4 -22 11 -43 15 -46
12 -7 12 -7 -7 57 -18 62 -29 79 -29 44z"/>
<path d="M251 3390 c0 -8 4 -24 9 -35 5 -13 9 -14 9 -5 0 8 -4 24 -9 35 -5 13
-9 14 -9 5z"/>
<path d="M305 3320 c-3 -5 -1 -10 4 -10 6 0 11 5 11 10 0 6 -2 10 -4 10 -3 0
-8 -4 -11 -10z"/>
<path d="M726 3315 c4 -8 8 -15 10 -15 2 0 4 7 4 15 0 8 -4 15 -10 15 -5 0 -7
-7 -4 -15z"/>
<path d="M271 3305 c1 -19 18 -51 18 -35 0 8 -4 22 -9 30 -5 8 -9 11 -9 5z"/>
<path d="M290 3240 c0 -5 4 -10 10 -10 5 0 7 -8 4 -17 -5 -14 -4 -15 4 -4 11
15 5 41 -9 41 -5 0 -9 -4 -9 -10z"/>
<path d="M764 3223 c2 -13 -1 -23 -7 -23 -6 0 -2 -7 9 -15 16 -13 17 -16 4
-25 -9 -6 -10 -10 -3 -10 21 0 23 17 8 56 -9 22 -13 29 -11 17z"/>
<path d="M311 3180 c0 -8 4 -24 9 -35 5 -13 9 -14 9 -5 0 8 -4 24 -9 35 -5 13
-9 14 -9 5z"/>
<path d="M728 3153 c7 -3 16 -2 19 1 4 3 -2 6 -13 5 -11 0 -14 -3 -6 -6z"/>
<path d="M790 3116 c0 -15 4 -25 9 -22 5 4 12 0 15 -6 3 -7 3 -2 0 12 -9 38
-24 48 -24 16z"/>
<path d="M330 3116 c0 -5 28 -86 37 -106 3 -8 13 -35 22 -59 15 -41 41 -68 41
-41 0 6 -4 9 -9 5 -11 -6 -31 55 -31 93 0 12 -5 22 -11 22 -5 0 -8 4 -4 9 3 5
1 12 -5 16 -6 4 -8 11 -5 16 4 5 1 9 -4 9 -6 0 -11 9 -11 20 0 11 -4 20 -10
20 -5 0 -10 -2 -10 -4z"/>
<path d="M800 3065 c0 -2 11 -15 25 -29 27 -27 32 -23 12 9 -11 18 -37 32 -37
20z"/>
<path d="M845 2990 c3 -5 8 -10 11 -10 2 0 4 5 4 10 0 6 -5 10 -11 10 -5 0 -7
-4 -4 -10z"/>
<path d="M860 2968 c0 -4 5 -19 12 -35 6 -15 12 -34 14 -41 3 -18 13 -27 20
-20 3 3 -6 28 -20 55 -14 26 -25 45 -26 41z"/>
<path d="M450 2890 c0 -5 5 -10 11 -10 5 0 7 5 4 10 -3 6 -8 10 -11 10 -2 0
-4 -4 -4 -10z"/>
<path d="M415 2880 c3 -5 8 -10 11 -10 2 0 4 5 4 10 0 6 -5 10 -11 10 -5 0 -7
-4 -4 -10z"/>
<path d="M450 2858 c0 -18 29 -57 30 -41 0 6 -5 15 -10 18 -6 4 -8 10 -5 15 3
5 1 11 -5 15 -5 3 -10 0 -10 -7z"/>
<path d="M430 2850 c0 -8 5 -22 10 -30 9 -13 10 -13 10 0 0 8 -5 22 -10 30 -9
13 -10 13 -10 0z"/>
<path d="M917 2828 c9 -18 17 -35 16 -38 0 -3 8 -14 19 -25 16 -16 14 -9 -8
38 -16 31 -32 57 -36 57 -5 0 -1 -15 9 -32z"/>
<path d="M450 2794 c0 -13 18 -39 24 -34 2 3 -2 14 -10 24 -8 11 -14 16 -14
10z"/>
<path d="M496 2748 c3 -4 11 -5 19 -1 21 7 19 12 -4 10 -11 0 -18 -5 -15 -9z"/>
<path d="M476 2735 c4 -8 11 -15 16 -15 6 0 5 6 -2 15 -7 8 -14 15 -16 15 -2
0 -1 -7 2 -15z"/>
<path d="M992 2684 c22 -42 26 -59 18 -64 -9 -5 -6 -10 9 -15 11 -3 21 -11 21
-16 0 -5 4 -9 10 -9 11 0 -71 159 -82 160 -3 0 7 -25 24 -56z"/>
<path d="M542 2682 c-11 -25 -11 -25 4 -10 9 9 15 21 13 27 -2 6 -10 -2 -17
-17z"/>
<path d="M520 2640 c17 -33 17 -33 24 -22 3 5 -4 18 -16 28 -21 19 -21 19 -8
-6z"/>
<path d="M967 2636 c-4 -10 -1 -13 8 -9 8 3 12 9 9 14 -7 12 -11 11 -17 -5z"/>
<path d="M542 2595 c9 -27 71 -145 75 -141 2 2 -9 30 -26 62 -29 57 -56 100
-49 79z"/>
<path d="M620 2585 c0 -8 2 -15 4 -15 2 0 6 7 10 15 3 8 1 15 -4 15 -6 0 -10
-7 -10 -15z"/>
<path d="M1051 2561 c-11 -7 -9 -10 7 -15 33 -11 14 -53 -21 -47 -5 1 -6 -3
-2 -9 3 -5 -1 -10 -9 -10 -9 0 -16 -5 -16 -11 0 -13 60 21 67 38 3 7 9 10 15
7 5 -3 2 8 -6 25 -19 35 -16 34 -35 22z"/>
<path d="M1008 2513 c7 -3 16 -2 19 1 4 3 -2 6 -13 5 -11 0 -14 -3 -6 -6z"/>
<path d="M973 2464 c4 -5 -3 -14 -15 -21 -14 -7 -17 -12 -8 -12 8 0 23 6 33
13 17 13 17 14 0 20 -10 4 -14 4 -10 0z"/>
<path d="M640 2420 c-11 -7 -11 -10 -2 -10 8 0 10 -5 6 -12 -5 -9 -3 -9 9 1 9
7 14 17 11 22 -6 11 -6 11 -24 -1z"/>
<path d="M886 2398 c3 -5 10 -6 15 -3 13 9 11 12 -6 12 -8 0 -12 -4 -9 -9z"/>
<path d="M658 2384 c-3 -3 1 -18 9 -35 16 -31 40 -38 49 -14 4 8 10 13 14 10
5 -3 11 -1 14 4 4 5 -2 8 -11 7 -9 -2 -19 -8 -21 -14 -2 -7 -11 -12 -19 -12
-9 0 -13 6 -10 14 3 8 -1 17 -9 20 -9 3 -12 10 -9 16 7 11 2 14 -7 4z"/>
<path d="M845 2374 c-21 -17 -86 -49 -96 -47 -3 1 -10 -7 -17 -17 -8 -14 4
-10 49 15 72 41 107 65 94 65 -6 0 -19 -8 -30 -16z"/>
<path d="M696 2297 c3 -10 9 -15 12 -12 3 3 0 11 -7 18 -10 9 -11 8 -5 -6z"/>
</g>
</svg>
